<svg xmlns="http://www.w3.org/2000/svg" viewBox="0 0 32 32">
  <path d="M0 16c0-8.836 7.164-16 16-16s16 7.164 16 16c0 8.836-7.164 16-16 16s-16-7.164-16-16zM16 2.133c-7.659 0-13.867 6.208-13.867 13.867s6.208 13.867 13.867 13.867 13.867-6.208 13.867-13.867-6.208-13.867-13.867-13.867zM10.667 12.8h-2.133v-2.133h2.133v2.133zM23.467 12.8h-2.133v-2.133h2.133v2.133zM8.107 21.547l0.64-0.853c3.627-4.835 10.88-4.835 14.507 0l0.64 0.853-1.707 1.28-0.64-0.853c-2.773-3.698-8.32-3.698-11.093 0l-0.64 0.853-1.707-1.28z"></path>
</svg>
