<svg xmlns="http://www.w3.org/2000/svg" viewBox="0 0 32 32">
  <path d="M8.609 4.267c-0 0-0 0-0 0-3.576 0-6.476 2.899-6.476 6.476 0 1.788 0.725 3.407 1.897 4.579l11.97 11.97 11.97-11.97c1.172-1.172 1.897-2.791 1.897-4.579 0-3.577-2.899-6.476-6.476-6.476-1.788 0-3.407 0.725-4.579 1.897l-2.058 2.059c-0.193 0.193-0.46 0.312-0.754 0.312s-0.561-0.119-0.754-0.312l-2.058-2.059c-1.172-1.172-2.791-1.897-4.579-1.897-0 0-0 0-0 0h0zM0 10.742c0-4.755 3.854-8.609 8.609-8.609 2.377 0 4.53 0.964 6.087 2.521l1.303 1.303 1.303-1.303c1.555-1.541 3.696-2.494 6.060-2.494 4.755 0 8.609 3.854 8.609 8.609 0 2.364-0.953 4.505-2.495 6.060l-12.724 12.725c-0.193 0.193-0.46 0.312-0.754 0.312s-0.561-0.119-0.754-0.312l-12.724-12.726c-1.558-1.558-2.521-3.709-2.522-6.086v-0z"></path>
</svg>
