<svg xmlns="http://www.w3.org/2000/svg" viewBox="0 0 32 32">
  <path d="M16.133 29.333h-1.2c-7.333-0.667-12.667-7.2-12-14.533 0.533-6.4 5.6-11.467 12-12 0.533 0 1.067 0.267 1.333 0.667s0.267 1.067-0.133 1.467c-2.667 3.6-1.867 8.533 1.733 11.2 2.8 2.133 6.667 2.133 9.467 0 0.4-0.267 0.933-0.4 1.467-0.133 0.4 0.267 0.667 0.8 0.667 1.333-0.267 3.6-2 6.8-4.8 9.067-2.533 1.867-5.467 2.933-8.533 2.933zM12.4 5.867c-3.867 1.333-6.667 4.8-6.933 9.067-0.533 5.867 3.733 11.067 9.6 11.6 2.8 0.267 5.6-0.533 7.733-2.4 1.467-1.2 2.533-2.8 3.2-4.533-3.333 1.2-7.067 0.667-10-1.467-3.733-2.933-5.2-7.867-3.6-12.267z"></path>
</svg>