<svg xmlns="http://www.w3.org/2000/svg" viewBox="0 0 32 32">
  <path d="M16 24c-4.418 0-8-3.582-8-8s3.582-8 8-8 8 3.582 8 8-3.582 8-8 8zM16 21.333c2.946 0 5.333-2.388 5.333-5.333s-2.388-5.333-5.333-5.333v0c-2.946 0-5.333 2.388-5.333 5.333s2.388 5.333 5.333 5.333v0zM14.667 2.667c0-0.736 0.597-1.333 1.333-1.333s1.333 0.597 1.333 1.333v2.667c0 0.736-0.597 1.333-1.333 1.333s-1.333-0.597-1.333-1.333v-2.667zM14.667 26.667c0-0.736 0.597-1.333 1.333-1.333s1.333 0.597 1.333 1.333v2.667c0 0.736-0.597 1.333-1.333 1.333s-1.333-0.597-1.333-1.333v-2.667zM2.667 17.333c-0.736 0-1.333-0.597-1.333-1.333s0.597-1.333 1.333-1.333h2.667c0.736 0 1.333 0.597 1.333 1.333s-0.597 1.333-1.333 1.333h-2.667zM26.667 17.333c-0.736 0-1.333-0.597-1.333-1.333s0.597-1.333 1.333-1.333h2.667c0.736 0 1.333 0.597 1.333 1.333s-0.597 1.333-1.333 1.333h-2.667zM5.057 6.943c-0.232-0.24-0.374-0.566-0.374-0.926 0-0.736 0.597-1.333 1.333-1.333 0.36 0 0.687 0.143 0.927 0.375l2 2c0.232 0.24 0.374 0.566 0.374 0.926 0 0.736-0.597 1.333-1.333 1.333-0.36 0-0.687-0.143-0.927-0.375l-2-2zM23.057 24.943c-0.232-0.24-0.374-0.566-0.374-0.926 0-0.736 0.597-1.333 1.333-1.333 0.36 0 0.687 0.143 0.927 0.375l2 2c0.232 0.24 0.374 0.566 0.374 0.926 0 0.736-0.597 1.333-1.333 1.333-0.36 0-0.687-0.143-0.927-0.375l-2-2zM6.943 26.943c-0.24 0.232-0.566 0.374-0.926 0.374-0.736 0-1.333-0.597-1.333-1.333 0-0.36 0.143-0.687 0.375-0.927l2-2c0.24-0.232 0.566-0.374 0.926-0.374 0.736 0 1.333 0.597 1.333 1.333 0 0.36-0.143 0.687-0.375 0.927l-2 2zM24.943 8.943c-0.24 0.232-0.566 0.374-0.926 0.374-0.736 0-1.333-0.597-1.333-1.333 0-0.36 0.143-0.687 0.375-0.927l2-2c0.24-0.232 0.566-0.374 0.926-0.374 0.736 0 1.333 0.597 1.333 1.333 0 0.36-0.143 0.687-0.375 0.927l-2 2z"></path>
</svg>
